<svg xmlns="http://www.w3.org/2000/svg" width="122" height="32" viewBox="0 0 122 32"><path fill="#fff" d="M90.837 31.192h-3.122c-.41 0-.744-.332-.744-.74V1.755c0-.41.334-.74.745-.74h3.122c.41 0 .744.33.744.74V30.45c0 .41-.332.742-.743.742zM121.026 1.105H95.24c-.412 0-.745.332-.745.74v3.112c0 .41.333.74.744.74h10.17v24.936c0 .41.332.74.743.74h3.122c.41 0 .744-.33.744-.74V5.698h8.638c.233 0 .452-.11.593-.293l2.37-3.11c.37-.49.02-1.19-.594-1.19zM69.737 31.95c-8.38-.657-14.87-7.858-14.667-16.233C55.277 7.13 62.35.207 71.016.207c4.317 0 8.442 1.747 11.44 4.818.296.305.278.796-.042 1.077l-2.346 2.06c-.294.258-.74.243-1.016-.034C76.93 6.005 74.04 4.8 71.016 4.8c-6.418 0-11.61 5.342-11.33 11.8.233 5.417 4.388 9.982 9.78 10.703 3.118.417 6.18-.44 8.574-2.325v-5.576h-8.048c-.41 0-.744-.332-.744-.742v-3.11c0-.41.334-.742.745-.742h11.912c.41 0 .744.332.744.74v11.154c0 .205-.085.4-.235.54l-.493.462c-3.275 3.06-7.657 4.6-12.185 4.246zM47.35 1.94v21.606L33.172 1.54c-.137-.213-.373-.342-.626-.342H28.67c-.41 0-.743.332-.743.74v28.696c0 .41.333.74.744.74h3.123c.41 0 .744-.33.744-.74V9.054l14.16 21.98c.136.213.372.342.625.342h3.893c.41 0 .744-.332.744-.74V1.94c0-.41-.334-.74-.745-.74h-3.122c-.41 0-.744.33-.744.74zM22.41 26.78H7.792l4.804-7.326c-1.7-.85-3.405-.97-4.928-.735L.12 30.233c-.318.494.037 1.14.626 1.14H22.41c.41 0 .743-.33.743-.74v-3.11c0-.41-.333-.742-.744-.742z"/><path fill="#fff" d="M25.935 20.867l-3.915-7.504c-.12-.232-.448-.248-.592-.03L20.14 15.3c-1.322-.624-2.664-1.025-3.995-1.257l7.673-11.7c.317-.495-.038-1.143-.626-1.143H4.538c-.233 0-.452.11-.593.293L1.577 4.6c-.372.487-.023 1.19.593 1.19h13.975l-5.326 8.123c-5.21.592-9.35 2.974-9.81 3.284-.03.02-.057.04-.083.066-.43.418-.02 1.132.558.972 3.41-.944 10.992-1.894 16.31.64l-1.286 1.962c-.15.227.014.53.287.53h8.835c.258 0 .423-.273.305-.5z"/></svg>