<?xml version="1.0" encoding="utf-8"?>
<!-- Generated by IcoMoon.io -->
<!DOCTYPE svg PUBLIC "-//W3C//DTD SVG 1.1//EN" "http://www.w3.org/Graphics/SVG/1.1/DTD/svg11.dtd">
<svg version="1.1" xmlns="http://www.w3.org/2000/svg" xmlns:xlink="http://www.w3.org/1999/xlink" width="122" height="32" viewBox="0 0 122 32">
<path fill="#fff" d="M90.837 31.192h-3.122c-0.411 0-0.744-0.332-0.744-0.741v-28.695c0-0.41 0.333-0.741 0.744-0.741h3.122c0.411 0 0.744 0.332 0.744 0.741v28.695c0 0.409-0.333 0.741-0.744 0.741z"></path>
<path fill="#fff" d="M121.026 1.105h-25.787c-0.411 0-0.744 0.332-0.744 0.741v3.111c0 0.409 0.333 0.741 0.744 0.741h10.17v24.935c0 0.41 0.333 0.741 0.744 0.741h3.122c0.411 0 0.744-0.332 0.744-0.741v-24.935h8.639c0.233 0 0.452-0.109 0.593-0.293l2.368-3.111c0.372-0.488 0.022-1.189-0.593-1.189z"></path>
<path fill="#fff" d="M69.737 31.95c-8.38-0.657-14.869-7.858-14.667-16.233 0.207-8.587 7.281-15.51 15.946-15.51 4.317 0 8.442 1.747 11.439 4.818 0.297 0.305 0.279 0.796-0.041 1.077l-2.346 2.060c-0.294 0.258-0.739 0.243-1.016-0.034-2.122-2.123-5.013-3.328-8.036-3.328-6.418 0-11.609 5.342-11.331 11.799 0.234 5.418 4.389 9.983 9.782 10.704 3.117 0.417 6.18-0.439 8.573-2.325l-0-5.576h-8.048c-0.411 0-0.744-0.332-0.744-0.742l0.001-3.111c0-0.41 0.333-0.741 0.744-0.741h11.912c0.411 0 0.744 0.332 0.744 0.741l0.001 11.153c0 0.205-0.085 0.401-0.235 0.541l-0.493 0.461c-3.275 3.060-7.657 4.601-12.185 4.246z"></path>
<path fill="#fff" d="M47.349 1.939v21.607l-14.176-22.007c-0.137-0.212-0.373-0.341-0.626-0.341h-3.876c-0.411 0-0.744 0.332-0.744 0.741v28.695c0 0.41 0.333 0.741 0.744 0.741h3.122c0.411 0 0.744-0.332 0.744-0.741v-21.58l14.159 21.981c0.137 0.212 0.373 0.341 0.626 0.341h3.893c0.411 0 0.744-0.332 0.744-0.741v-28.695c0-0.409-0.333-0.741-0.744-0.741h-3.122c-0.411 0-0.744 0.332-0.744 0.741z"></path>
<path fill="#fff" d="M22.409 26.781h-14.616l4.804-7.327c-1.701-0.851-3.405-0.97-4.928-0.735l-7.55 11.515c-0.317 0.494 0.038 1.141 0.627 1.141h21.663c0.411 0 0.744-0.332 0.744-0.741v-3.111c0-0.409-0.333-0.741-0.744-0.741z"></path>
<path fill="#fff" d="M25.935 20.867l-3.915-7.504c-0.121-0.232-0.448-0.248-0.592-0.029l-1.288 1.964c-1.322-0.624-2.664-1.025-3.995-1.257l7.673-11.702c0.317-0.494-0.038-1.142-0.626-1.142h-18.654c-0.233 0-0.452 0.109-0.593 0.293l-2.368 3.109c-0.372 0.488-0.023 1.19 0.593 1.19h13.975l-5.326 8.124c-5.21 0.592-9.349 2.974-9.81 3.284-0.030 0.020-0.056 0.041-0.082 0.066-0.43 0.418-0.021 1.132 0.558 0.972 3.41-0.944 10.992-1.894 16.31 0.64l-1.286 1.962c-0.149 0.227 0.015 0.529 0.288 0.529h8.835c0.258 0 0.423-0.272 0.305-0.5z"></path>
</svg>
